<svg width="300" height="160" viewBox="0 0 57 30" xmlns="http://www.w3.org/2000/svg">
  <!-- Red and White Stripes -->
  <rect width="57" height="30" fill="white"/>
  <g fill="red">
    <rect y="0" width="57" height="2"/>
    <rect y="4" width="57" height="2"/>
    <rect y="8" width="57" height="2"/>
    <rect y="12" width="57" height="2"/>
    <rect y="16" width="57" height="2"/>
    <rect y="20" width="57" height="2"/>
    <rect y="24" width="57" height="2"/>
  </g>
  
  <!-- Blue Rectangle -->
  <rect width="22" height="14" fill="#3C3B6E"/>
  
  <!-- White Stars -->
  <g fill="white">
    <circle cx="2" cy="2" r="0.9"/>
    <circle cx="6" cy="2" r="0.9"/>
    <circle cx="10" cy="2" r="0.9"/>
    <circle cx="14" cy="2" r="0.9"/>
    <circle cx="18" cy="2" r="0.9"/>
    
    <circle cx="4" cy="4" r="0.9"/>
    <circle cx="8" cy="4" r="0.9"/>
    <circle cx="12" cy="4" r="0.9"/>
    <circle cx="16" cy="4" r="0.9"/>
    <circle cx="20" cy="4" r="0.9"/>
    
    <circle cx="2" cy="6" r="0.9"/>
    <circle cx="6" cy="6" r="0.9"/>
    <circle cx="10" cy="6" r="0.9"/>
    <circle cx="14" cy="6" r="0.9"/>
    <circle cx="18" cy="6" r="0.9"/>
    
    <circle cx="4" cy="8" r="0.9"/>
    <circle cx="8" cy="8" r="0.9"/>
    <circle cx="12" cy="8" r="0.9"/>
    <circle cx="16" cy="8" r="0.9"/>
    <circle cx="20" cy="8" r="0.9"/>
    
    <circle cx="2" cy="10" r="0.9"/>
    <circle cx="6" cy="10" r="0.9"/>
    <circle cx="10" cy="10" r="0.9"/>
    <circle cx="14" cy="10" r="0.9"/>
    <circle cx="18" cy="10" r="0.9"/>
    
    <circle cx="4" cy="12" r="0.9"/>
    <circle cx="8" cy="12" r="0.9"/>
    <circle cx="12" cy="12" r="0.9"/>
    <circle cx="16" cy="12" r="0.9"/>
    <circle cx="20" cy="12" r="0.9"/>
  </g>
</svg>